nColumns=19
nRows=71
DataType=double
version=3
OpenSimVersion=4.1
endheader
time	ground_force_calcn_l_vx	ground_force_calcn_l_vy	ground_force_calcn_l_vz	ground_force_calcn_l_px	ground_force_calcn_l_py	ground_force_calcn_l_pz	ground_force_calcn_l_mx	ground_force_calcn_l_my	ground_force_calcn_l_mz	ground_force_calcn_r_vx	ground_force_calcn_r_vy	ground_force_calcn_r_vz	ground_force_calcn_r_px	ground_force_calcn_r_py	ground_force_calcn_r_pz	ground_force_calcn_r_mx	ground_force_calcn_r_my	ground_force_calcn_r_mz
0.3985	0	0	0	0	0.271424	0	0	0	0	0	0	0	0	0.07311	0	0	0	0
0.399499	0	0	0	0	0.272274	0	0	0	0	0	0	0	0	0.0726729	0	0	0	0
0.400497	0	0	0	0	0.273119	0	0	0	0	0	0	0	0	0.0722317	0	0	0	0
0.401496	0	0	0	0	0.273958	0	0	0	0	0	0	0	0	0.0717867	0	0	0	0
0.402495	0	0	0	0	0.274793	0	0	0	0	0	0	0	0	0.0713379	0	0	0	0
0.403494	0	0	0	0	0.275622	0	0	0	0	0	0	0	0	0.0708855	0	0	0	0
0.404492	0	0	0	0	0.276445	0	0	0	0	0	0	0	0	0.0704296	0	0	0	0
0.405491	0	0	0	0	0.277263	0	0	0	0	0	0	0	0	0.0699704	0	0	0	0
0.40649	0	0	0	0	0	0	0	0	0	-0.689675	5.75923	-0.424972	-0.11741	0	0.0686115	-0.00234428	0.0195763	-0.00144453
0.407489	0	0	0	0	0	0	0	0	0	-1.13863	9.52735	-0.700959	-0.117432	0	0.0693679	-0.00392567	0.0328477	-0.00241671
0.408487	0	0	0	0	0	0	0	0	0	-1.6918	14.1848	-1.04051	-0.117449	0	0.0701241	-0.00591658	0.0496075	-0.00363889
0.409486	0	0	0	0	0	0	0	0	0	-2.34598	19.7107	-1.44147	-0.117459	0	0.0708802	-0.00832244	0.0699242	-0.00511366
0.410485	0	0	0	0	0	0	0	0	0	-3.09799	26.0839	-1.90169	-0.117465	0	0.071636	-0.0111484	0.0938653	-0.00684342
0.411484	0	0	0	0	0	0	0	0	0	-3.94462	33.2836	-2.41905	-0.117464	0	0.0723914	-0.0143992	0.121497	-0.00883037
0.412482	0	0	0	0	0	0	0	0	0	-4.88266	41.2886	-2.99141	-0.117458	0	0.0731461	-0.0180794	0.152882	-0.0110765
0.413481	0	0	0	0	0	0	0	0	0	-5.90894	50.0782	-3.61669	-0.117447	0	0.0739001	-0.0221928	0.188084	-0.0135836
0.41448	0	0	0	0	0	0	0	0	0	-7.02025	59.6312	-4.29279	-0.117431	0	0.074653	-0.026743	0.22716	-0.016353
0.415479	0	0	0	0	0	0	0	0	0	-8.2134	69.9268	-5.01766	-0.117409	0	0.0754044	-0.0317329	0.270166	-0.019386
0.416477	0	0	0	0	0	0	0	0	0	-9.48522	80.9441	-5.78925	-0.117382	0	0.0761542	-0.0371649	0.317155	-0.0226834
0.417476	0	0	0	0	0	0	0	0	0	-10.8325	92.662	-6.60554	-0.117351	0	0.0769019	-0.0430408	0.368173	-0.0262457
0.418475	0	0	0	0	0	0	0	0	0	-12.2522	105.06	-7.46454	-0.117314	0	0.077647	-0.0493616	0.423266	-0.0300732
0.419474	0	0	0	0	0	0	0	0	0	-13.7409	118.117	-8.36429	-0.117273	0	0.0783893	-0.0561277	0.482471	-0.0341656
0.420472	0	0	0	0	0	0	0	0	0	-15.2957	131.811	-9.30284	-0.117228	0	0.0791283	-0.0633386	0.545821	-0.0385224
0.421471	0	0	0	0	0	0	0	0	0	-16.9134	146.124	-10.2783	-0.117178	0	0.0798635	-0.0709931	0.613344	-0.0431425
0.42247	0	0	0	0	0	0	0	0	0	-18.5908	161.032	-11.2888	-0.117125	0	0.0805944	-0.0790891	0.685062	-0.0480247
0.423469	0	0	0	0	0	0	0	0	0	-20.3249	176.517	-12.3325	-0.117067	0	0.0813206	-0.0876237	0.76099	-0.0531671
0.424467	0	0	0	0	0	0	0	0	0	-22.1125	192.556	-13.4075	-0.117006	0	0.0820416	-0.096593	0.841134	-0.0585675
0.425466	0	0	0	0	0	0	0	0	0	-23.9506	209.13	-14.5122	-0.116941	0	0.0827569	-0.105992	0.925498	-0.0642234
0.426465	0	0	0	0	0	0	0	0	0	-25.836	226.218	-15.6448	-0.116874	0	0.083466	-0.115816	1.01407	-0.0701316
0.427463	0	0	0	0	0	0	0	0	0	-27.7658	243.799	-16.8037	-0.116802	0	0.0841684	-0.126057	1.10685	-0.0762886
0.428462	0	0	0	0	0	0	0	0	0	-29.7369	261.853	-17.9871	-0.116728	0	0.0848637	-0.136707	1.2038	-0.0826906
0.429461	0	0	0	0	0	0	0	0	0	-31.7463	280.36	-19.1935	-0.116652	0	0.0855513	-0.147759	1.3049	-0.0893334
0.43046	0	0	0	0	0	0	0	0	0	-33.7911	299.299	-20.4213	-0.116572	0	0.0862308	-0.159202	1.4101	-0.0962121
0.431458	0	0	0	0	0	0	0	0	0	-35.8683	318.649	-21.6691	-0.116491	0	0.0869017	-0.171026	1.51937	-0.103322
0.432457	0	0	0	0	0	0	0	0	0	-37.9749	338.392	-22.9354	-0.116407	0	0.0875636	-0.183218	1.63265	-0.110657
0.433456	0	0	0	0	0	0	0	0	0	-40.108	358.506	-24.2187	-0.116321	0	0.088216	-0.195767	1.74986	-0.118211
0.434455	0	0	0	0	0	0	0	0	0	-42.2648	378.973	-25.5178	-0.116234	0	0.0888585	-0.208658	1.87096	-0.125979
0.435453	0	0	0	0	0	0	0	0	0	-44.4424	399.771	-26.8313	-0.116144	0	0.0894907	-0.221877	1.99584	-0.133954
0.436452	0	0	0	0	0	0	0	0	0	-46.638	420.882	-28.1581	-0.116054	0	0.0901122	-0.235407	2.12442	-0.142129
0.437451	0	0	0	0	0	0	0	0	0	-48.8487	442.286	-29.4968	-0.115961	0	0.0907227	-0.249234	2.25661	-0.150497
0.43845	0	0	0	0	0	0	0	0	0	-51.0719	463.964	-30.8464	-0.115868	0	0.0913217	-0.263338	2.3923	-0.159051
0.439448	0	0	0	0	0	0	0	0	0	-53.3047	485.896	-32.2057	-0.115774	0	0.091909	-0.277703	2.53138	-0.167783
0.440447	0	0	0	0	0	0	0	0	0	-55.5446	508.064	-33.5738	-0.115679	0	0.0924843	-0.292307	2.67372	-0.176685
0.441446	0	0	0	0	0	0	0	0	0	-57.7887	530.449	-34.9497	-0.115583	0	0.0930472	-0.307133	2.8192	-0.185749
0.442445	0	0	0	0	0	0	0	0	0	-60.0346	553.031	-36.3324	-0.115486	0	0.0935976	-0.322158	2.96768	-0.194967
0.443443	0	0	0	0	0	0	0	0	0	-62.2795	575.793	-37.7211	-0.115389	0	0.0941352	-0.337361	3.11901	-0.204331
0.444442	0	0	0	0	0	0	0	0	0	-64.5209	598.717	-39.1149	-0.115292	0	0.0946598	-0.35272	3.27304	-0.213832
0.445441	0	0	0	0	0	0	0	0	0	-66.7563	621.784	-40.5132	-0.115194	0	0.0951712	-0.368213	3.42962	-0.223462
0.44644	0	0	0	0	0	0	0	0	0	-68.9832	644.977	-41.9151	-0.115097	0	0.0956693	-0.383815	3.58858	-0.233211
0.447438	0	0	0	0	0	0	0	0	0	-71.1991	668.278	-43.3201	-0.114999	0	0.0961538	-0.399503	3.74975	-0.243072
0.448437	0	0	0	0	0	0	0	0	0	-73.4016	691.67	-44.7274	-0.114902	0	0.0966249	-0.415252	3.91296	-0.253035
0.449436	0	0	0	0	0	0	0	0	0	-75.5883	715.136	-46.1367	-0.114804	0	0.0970822	-0.431037	4.07802	-0.263091
0.450435	0	0	0	0	0	0	0	0	0	-77.7569	738.66	-47.5473	-0.114707	0	0.0975259	-0.446834	4.24474	-0.273233
0.451433	0	0	0	0	0	0	0	0	0	-79.9051	762.224	-48.9587	-0.114611	0	0.0979558	-0.462615	4.41294	-0.28345
0.452432	0	0	0	0	0	0	0	0	0	-82.0305	785.814	-50.3707	-0.114515	0	0.098372	-0.478356	4.58243	-0.293734
0.453431	0	0	0	0	0	0	0	0	0	-84.1311	809.413	-51.7827	-0.11442	0	0.0987744	-0.49403	4.75299	-0.304076
0.454429	0	0	0	0	0	0	0	0	0	-86.2045	833.005	-53.1945	-0.114325	0	0.0991632	-0.509611	4.92444	-0.314468
0.455428	0	0	0	0	0	0	0	0	0	-88.2486	856.577	-54.6057	-0.114231	0	0.0995383	-0.525073	5.09657	-0.3249
0.456427	0	0	0	0	0	0	0	0	0	-90.2613	880.112	-56.0161	-0.114138	0	0.0998999	-0.540388	5.26917	-0.335365
0.457426	0	0	0	0	0	0	0	0	0	-92.2406	903.597	-57.4255	-0.114046	0	0.100248	-0.555532	5.44203	-0.345853
0.458424	0	0	0	0	0	0	0	0	0	-94.1844	927.017	-58.8336	-0.113955	0	0.100583	-0.570476	5.61495	-0.356356
0.459423	0	0	0	0	0	0	0	0	0	-96.0906	950.359	-60.2403	-0.113865	0	0.100905	-0.585196	5.78772	-0.366866
0.460422	0	0	0	0	0	0	0	0	0	-97.9575	973.609	-61.6455	-0.113777	0	0.101213	-0.599665	5.96013	-0.377374
0.461421	0	0	0	0	0	0	0	0	0	-99.7831	996.755	-63.049	-0.113689	0	0.101509	-0.613858	6.13196	-0.387872
0.462419	0	0	0	0	0	0	0	0	0	-101.565	1019.78	-64.4506	-0.113603	0	0.101792	-0.627749	6.30301	-0.398352
0.463418	0	0	0	0	0	0	0	0	0	-103.303	1042.68	-65.8505	-0.113518	0	0.102063	-0.641314	6.47308	-0.408806
0.464417	0	0	0	0	0	0	0	0	0	-104.993	1065.44	-67.2483	-0.113434	0	0.102322	-0.654528	6.64196	-0.419226
0.465416	0	0	0	0	0	0	0	0	0	-106.635	1088.05	-68.6442	-0.113352	0	0.102568	-0.667368	6.80945	-0.429604
0.466414	0	0	0	0	0	0	0	0	0	-108.227	1110.49	-70.038	-0.113271	0	0.102803	-0.67981	6.97536	-0.439932
0.467413	0	0	0	0	0	0	0	0	0	-109.767	1132.76	-71.4297	-0.113192	0	0.103027	-0.691833	7.13948	-0.450202
0.468412	0	0	0	0	0	0	0	0	0	-111.254	1154.84	-72.8193	-0.113115	0	0.103239	-0.703414	7.30163	-0.460408
